<?xml version="1.0" encoding="iso-8859-1"?>
<!-- Uploaded to: SVG Repo, www.svgrepo.com, Generator: SVG Repo Mixer Tools -->
<svg fill="#000000" height="800px" width="800px" version="1.1" id="Layer_1" xmlns="http://www.w3.org/2000/svg" xmlns:xlink="http://www.w3.org/1999/xlink" 
	 viewBox="0 0 512 512" xml:space="preserve">
<g>
	<g>
		<path d="M500,154H12c-6.616,0-12,5.384-12,12v180c0,6.616,5.384,12,12,12s12-5.384,12-12V178h464v168c0,6.616,5.384,12,12,12
			c6.616,0,12-5.384,12-12V166C512,159.384,506.616,154,500,154z M504,346c0,2.204-1.792,4-4,4s-4-1.796-4-4V174
			c0-2.208-1.788-4-4-4H20c-2.212,0-4,1.792-4,4v172c0,2.204-1.792,4-4,4s-4-1.796-4-4V166c0-2.204,1.792-4,4-4h488
			c2.208,0,4,1.796,4,4V346z"/>
	</g>
</g>
<g>
	<g>
		<path d="M180,170c-2.212,0-4,1.792-4,4v172c0,2.204-1.792,4-4,4s-4-1.796-4-4V174c0-2.208-1.788-4-4-4c-2.212,0-4,1.792-4,4v172
			c0,6.616,5.384,12,12,12c6.616,0,12-5.384,12-12V174C184,171.792,182.212,170,180,170z"/>
	</g>
</g>
<g>
	<g>
		<path d="M408,170c-2.212,0-4,1.792-4,4v172c0,2.204-1.792,4-4,4s-4-1.796-4-4V174c0-2.208-1.788-4-4-4c-2.212,0-4,1.792-4,4v172
			c0,6.616,5.384,12,12,12c6.616,0,12-5.384,12-12V174C412,171.792,410.212,170,408,170z"/>
	</g>
</g>
<g>
	<g>
		<path d="M164,338H20c-2.212,0-4,1.792-4,4s1.788,4,4,4h144c2.212,0,4-1.792,4-4S166.212,338,164,338z"/>
	</g>
</g>
<g>
	<g>
		<path d="M492,338h-84c-2.212,0-4,1.792-4,4s1.788,4,4,4h84c2.212,0,4-1.792,4-4S494.212,338,492,338z"/>
	</g>
</g>
<g>
	<g>
		<path d="M164,226H20c-2.212,0-4,1.792-4,4s1.788,4,4,4h144c2.212,0,4-1.792,4-4S166.212,226,164,226z"/>
	</g>
</g>
<g>
	<g>
		<path d="M492,226h-84c-2.212,0-4,1.792-4,4s1.788,4,4,4h84c2.212,0,4-1.792,4-4S494.212,226,492,226z"/>
	</g>
</g>
<g>
	<g>
		<path d="M148,282H20c-2.212,0-4,1.792-4,4s1.788,4,4,4h128c2.212,0,4-1.792,4-4S150.212,282,148,282z"/>
	</g>
</g>
<g>
	<g>
		<path d="M476,282h-68c-2.212,0-4,1.792-4,4s1.788,4,4,4h68c2.212,0,4-1.792,4-4S478.212,282,476,282z"/>
	</g>
</g>
<g>
	<g>
		<circle cx="92" cy="258" r="8"/>
	</g>
</g>
<g>
	<g>
		<circle cx="92" cy="314" r="8"/>
	</g>
</g>
<g>
	<g>
		<circle cx="452" cy="258" r="8"/>
	</g>
</g>
<g>
	<g>
		<circle cx="452" cy="314" r="8"/>
	</g>
</g>
</svg>